<svg width="32" height="32" viewBox="0 0 32 32" fill="none" xmlns="http://www.w3.org/2000/svg">
        <path d="M10 8V18C10 21.31 12.69 24 16 24C19.31 24 22 21.31 22 18V8L16 5L10 8Z" fill="#FFFFFF" fill-opacity="0.1" stroke="#FFFFFF" stroke-width="1.2"/>
        <path d="M24 8L8 24" stroke="#FFFFFF" stroke-width="1.2" stroke-linecap="round"/>
        <path d="M16 12V18M13 15H19" stroke="#FFFFFF" stroke-width="1"/>
        <path d="M16 2C8.27 2 2 8.27 2 16C2 23.73 8.27 30 16 30C23.73 30 30 23.73 30 16C30 8.27 23.73 2 16 2ZM16 28C9.37 28 4 22.63 4 16C4 9.37 9.37 4 16 4C22.63 4 28 9.37 28 16C28 22.63 22.63 28 16 28Z" fill="#FFFFFF" fill-opacity="0.05"/>
    </svg>